PathFileType	4	(X/Y/Z)	 s01c0101.trc
DataRate	CameraRate	NumFrames	NumMarkers	Units	OrigDataRate	OrigDataStartFrame	OrigNumFrames
200	200	4	47	mm	200	1501	2000
Frame#	Time	racr			lacr			c7			jug			rlel			rdr			llel			ldr			s2			lic			ric			lasi			rasi			rpsi			lpsi			rgt			lgt			rth1			rth2			rth3			rth4			rlfc			rsh1			rsh2			rsh3			rsh4			rlmal			rmmal			rcal			rtoe			rmt5			lth1			lth2			lth4			lth3			llfc			lsh1			lsh2			lsh3			lsh4			llmal			lcal			ltoe			lmt5			SBIKE			LBIKE			RBIKE			
		X1	Y1	Z1	X2	Y2	Z2	X3	Y3	Z3	X4	Y4	Z4	X5	Y5	Z5	X6	Y6	Z6	X7	Y7	Z7	X8	Y8	Z8	X9	Y9	Z9	X10	Y10	Z10	X11	Y11	Z11	X12	Y12	Z12	X13	Y13	Z13	X14	Y14	Z14	X15	Y15	Z15	X16	Y16	Z16	X17	Y17	Z17	X18	Y18	Z18	X19	Y19	Z19	X20	Y20	Z20	X21	Y21	Z21	X22	Y22	Z22	X23	Y23	Z23	X24	Y24	Z24	X25	Y25	Z25	X26	Y26	Z26	X27	Y27	Z27	X28	Y28	Z28	X29	Y29	Z29	X30	Y30	Z30	X31	Y31	Z31	X32	Y32	Z32	X33	Y33	Z33	X34	Y34	Z34	X35	Y35	Z35	X36	Y36	Z36	X37	Y37	Z37	X38	Y38	Z38	X39	Y39	Z39	X40	Y40	Z40	X41	Y41	Z41	X42	Y42	Z42	X43	Y43	Z43	X44	Y44	Z44	X45	Y45	Z45	X46	Y46	Z46	X47	Y47	Z47	
1501	7.5050	506.141405	1325.838488	-101.123788	514.464145	1315.192338	-406.851805	468.092596	1390.687345	-243.878286	466.681647	1227.388470	-246.700966	569.162396	1062.579236	1.390545	723.525727	850.784425	-53.565511	514.665746	1042.858992	-525.672857	702.812777	882.197397	-434.307693	-55.971520	1172.399602	-221.118353	105.189500	1205.851870	-397.609704	111.601131	1169.850957	-81.434533	106.333013	1147.767669	-383.243645	134.639666	1126.104605	-111.147563	-23.023646	1208.856738	-167.811853	-32.943133	1221.278682	-272.189350	62.718076	1048.934343	-51.852574	52.896263	1076.067251	-432.297319	155.066717	954.627520	-47.991597	216.618427	899.519314	-52.492472	279.039118	834.583611	-63.938893	254.369733	937.955148	-64.594740	328.387060	736.421194	-87.747571	254.550524	647.333833	-59.880011	212.229028	574.543761	-64.891520	161.217850	501.824405	-74.075466	255.393303	548.622375	-98.999414	88.675335	413.344818	-90.525326	133.607521	401.410045	-166.337698	52.885509	433.348522	-146.976976	184.710203	196.260097	-135.101478	102.746101	266.452966	-65.622763	151.722096	988.312496	-442.188199	234.490980	965.684639	-435.043663	251.289656	1016.982055	-425.797565	312.842654	933.153940	-422.254834	404.419050	863.215679	-398.989282	356.079207	757.529188	-432.780104	334.545598	673.166759	-431.410963	311.231995	590.732600	-421.847695	387.675792	660.874966	-402.086567	274.726681	466.187091	-412.100684	223.502252	427.391970	-372.287934	499.407775	412.086642	-369.141548	397.871794	386.440773	-439.385925	-223.199009	893.788217	-248.302085	-12.053861	84.408622	-453.438888	-20.199861	80.708792	-53.463564	
1502	7.5100	505.915448	1325.768456	-101.260342	514.858812	1315.418111	-406.561681	468.139937	1390.574588	-243.887302	466.834878	1227.315392	-246.619560	568.926360	1062.494036	1.295297	723.418109	850.826386	-53.486025	515.388191	1043.293139	-525.859350	702.857754	882.103726	-434.273357	-56.128379	1171.877035	-221.729932	104.993649	1204.718364	-398.184174	111.504199	1170.224460	-81.656211	105.896741	1146.503927	-383.735636	134.656731	1126.390391	-111.700370	-23.369739	1208.704145	-168.586337	-33.208996	1220.351210	-273.233274	63.935424	1049.970800	-51.570097	52.692058	1072.914191	-432.148117	158.174338	957.430193	-47.741968	220.839423	903.481746	-52.382890	284.069641	839.712485	-64.292706	257.574635	942.661014	-65.098476	334.195962	742.662240	-88.174251	258.687526	654.868379	-60.278081	215.120068	582.796762	-65.171548	162.824644	511.034339	-74.302281	257.567695	555.983453	-99.151888	88.846156	423.658449	-90.459709	133.190001	410.848036	-166.458759	53.278869	444.291856	-147.037393	180.956665	205.051805	-134.929745	100.150934	276.492121	-65.633423	150.462367	983.917885	-441.909073	233.237152	959.227983	-434.776519	250.750290	1010.263061	-425.804455	310.297870	925.061784	-421.670540	399.822290	852.702534	-398.835573	352.654512	745.243041	-432.576438	333.120762	660.882888	-430.677026	311.488715	578.254510	-421.650900	386.517189	649.955793	-401.810699	277.115722	454.467431	-412.253444	226.336187	415.120001	-372.064913	502.345646	401.901703	-369.122572	400.970089	375.604360	-439.417850	-223.153621	893.795496	-248.291199	-12.061326	84.385251	-453.419118	-20.186189	80.703252	-53.458422	
1503	7.5150	505.678796	1325.557448	-101.355293	515.302011	1315.534429	-406.286224	468.171514	1390.454355	-243.989744	466.997074	1227.229639	-246.638285	568.570651	1062.379040	1.362841	723.306398	850.846659	-53.396140	515.981157	1043.618908	-526.108474	702.936658	882.000681	-434.273963	-56.361149	1171.143061	-222.506565	104.840300	1203.281536	-398.933354	111.383525	1170.538860	-81.979989	105.600346	1145.071006	-384.449907	134.771292	1126.792269	-112.338493	-23.718178	1208.522792	-169.522924	-33.444613	1219.339359	-274.350354	64.783487	1051.060171	-51.632858	52.543318	1069.909778	-432.107466	161.341204	960.332906	-47.520607	225.223009	907.776667	-52.122793	290.010331	845.257676	-64.414684	260.764405	947.651547	-65.743080	339.962266	749.234361	-88.564604	262.978872	662.570419	-60.579291	217.676887	591.219439	-65.831321	164.791994	520.304804	-74.441316	260.319977	563.667672	-99.243937	89.473024	434.138852	-90.333565	131.297509	420.149737	-167.160600	54.137894	455.303871	-147.092936	177.859731	214.069691	-134.796542	98.162505	286.849952	-65.590474	149.226398	979.335115	-441.708087	231.715826	952.863513	-434.698807	250.267601	1003.336549	-425.825968	307.918446	916.870658	-420.980538	395.031608	842.125849	-398.785249	349.546383	734.355569	-432.621266	331.276586	648.858424	-430.264970	311.310019	566.160954	-421.527335	384.910092	639.254881	-401.580177	279.096856	442.804430	-412.410749	228.638147	403.544837	-372.286627	504.687238	391.356233	-369.043284	403.486252	364.584701	-439.418863	-223.100882	893.787737	-248.266882	-12.039400	84.385683	-453.431498	-20.185249	80.710364	-53.461272	
1504	7.5200	505.447584	1325.321359	-101.437384	515.795884	1315.445754	-406.051108	468.201603	1390.287661	-244.175001	467.090437	1227.065173	-246.697956	568.148177	1062.142600	1.544802	723.165906	850.877023	-53.269727	516.447332	1043.854636	-526.446318	702.982606	881.841228	-434.258409	-56.560768	1170.370107	-223.304851	104.733135	1201.526433	-399.864768	111.295414	1170.753014	-82.360354	105.483212	1143.541598	-385.387685	134.856900	1127.214012	-112.940298	-24.016918	1208.250861	-170.658615	-33.653120	1218.238177	-275.472448	65.755591	1052.167544	-51.487353	52.571485	1066.891473	-432.117236	164.435322	963.387270	-47.348205	229.557597	912.232246	-51.948492	295.612194	851.182265	-64.535664	263.986776	952.804936	-66.647015	345.906570	756.180076	-88.703454	267.510238	670.429181	-60.880390	221.092768	599.668523	-66.074986	167.191656	529.646857	-74.625144	263.415940	571.401484	-99.328762	90.550798	444.617325	-90.292852	130.525012	428.837947	-167.925868	55.405774	466.357505	-147.152438	175.450255	223.277357	-134.747641	96.914266	297.274997	-65.625652	147.984569	974.584623	-441.594355	230.023008	946.010441	-434.333030	249.846654	996.226731	-425.802520	305.510784	908.462454	-420.203573	389.863272	831.657296	-398.477045	345.711356	723.339902	-432.681321	329.013912	637.646263	-430.335571	310.506046	554.335440	-421.427848	382.960285	628.844853	-401.858593	280.254799	430.992583	-412.564338	230.365104	392.176285	-372.458171	506.471451	380.653669	-368.979720	405.356904	353.503302	-439.428114	-223.073152	893.780436	-248.253851	-12.040958	84.391733	-453.441017	-20.182565	80.700180	-53.464242	
